<svg aria-hidden="true" style="position: absolute; width: 0; height: 0; overflow: hidden;" version="1.1" xmlns="http://www.w3.org/2000/svg" xmlns:xlink="http://www.w3.org/1999/xlink">
<defs>
<symbol id="icon-cat" viewBox="0 0 32 32">
<path fill="#000" style="fill: var(--color1, #000)" d="M2.555 10.693c0 0-0.474-8.812 1.441-9.253s5.218 2.721 5.218 2.721l-6.659 6.532z"></path>
<path fill="#000" style="fill: var(--color1, #000)" d="M20.642 4.376c0 0 3.535-3.52 6.040-2.934 2.504 0.586 0.591 7.545 0.591 7.545l-6.631-4.611z"></path>
<path fill="#f07f2e" style="fill: var(--color2, #f07f2e); stroke: var(--color2, #f07f2e)" stroke="#f07f2e" stroke-linejoin="miter" stroke-linecap="butt" stroke-miterlimit="10" stroke-width="0.5333" d="M27.558 26.809c-2.653 2.097-4.428 2.782-7.444 3.598-2.013 0.545-7.083 0.517-11.808-1.384-3.31-1.448-4.607-3.022-5.232-3.88-0.544-0.746-1.65-2.402-1.713-4.214-0.092-2.637-0.015-5.21 1.196-10.232 1.211-5.024 6.659-6.532 6.659-6.532 5.953-1.406 10.897-0.301 12.612 0s6.589 3.387 7.008 9.571c0.064 0.925 1.1 4.214 1.2 6.977 0.030 0.847 0.055 1.975-0.367 3.133-0.487 1.335-1.573 2.513-2.11 2.963z"></path>
<path fill="#000" style="fill: var(--color1, #000)" d="M11.149 14.33c0.042-0.079 0.090-0.155 0.142-0.23 0.025-0.036 0.050-0.071 0.075-0.107 0.014-0.019 0.030-0.039 0.044-0.057 0.034-0.048-0.076 0.092-0.006 0.008 0.072-0.087 0.145-0.171 0.226-0.25 0.042-0.042 0.086-0.082 0.131-0.121 0.016-0.014 0.095-0.077 0.033-0.029s0.028-0.019 0.048-0.033c0.050-0.034 0.103-0.067 0.157-0.095 0.026-0.014 0.055-0.026 0.083-0.040 0.055-0.028-0.098 0.031 0.009-0.002 0.059-0.019 0.118-0.033 0.178-0.047 0.079-0.020-0.101 0.003-0.019 0.003 0.036 0 0.072-0.005 0.109-0.003 0.033 0 0.065 0.006 0.097 0.006 0.059 0-0.095-0.026-0.039-0.005 0.012 0.005 0.030 0.005 0.044 0.009 0.034 0.009 0.069 0.017 0.101 0.028 0.014 0.005 0.030 0.011 0.044 0.015 0.092 0.026-0.053-0.034-0.008-0.003 0.076 0.051 0.165 0.090 0.243 0.141 0.016 0.011 0.031 0.022 0.047 0.034-0.075-0.057 0 0.001 0.014 0.015 0.042 0.039 0.086 0.076 0.126 0.116 0.209 0.208 0.336 0.389 0.495 0.645 0.132 0.213 0.418 0.296 0.639 0.168 0.213-0.124 0.301-0.422 0.168-0.636-0.5-0.802-1.259-1.613-2.296-1.432-0.623 0.109-1.111 0.599-1.468 1.088-0.081 0.11-0.159 0.225-0.223 0.344-0.118 0.222-0.056 0.506 0.168 0.636 0.21 0.119 0.52 0.053 0.639-0.169z"></path>
<path fill="#000" style="fill: var(--color1, #000)" d="M24.801 13.665c0.041-0.076 0.087-0.149 0.136-0.22 0.023-0.034 0.047-0.068 0.072-0.102 0.014-0.019 0.028-0.037 0.041-0.056 0.034-0.047-0.078 0.095-0.008 0.012 0.069-0.082 0.139-0.163 0.217-0.239 0.041-0.040 0.083-0.079 0.126-0.115 0.015-0.014 0.093-0.076 0.030-0.026s0.023-0.017 0.044-0.030c0.048-0.033 0.098-0.064 0.15-0.092 0.026-0.014 0.053-0.026 0.078-0.039 0.055-0.028-0.103 0.033 0.005 0 0.056-0.017 0.114-0.031 0.171-0.045 0.078-0.019-0.104 0.005-0.023 0.003 0.034 0 0.069-0.005 0.104-0.003 0.031 0 0.062 0.006 0.093 0.006 0.059 0-0.098-0.026-0.044-0.005 0.012 0.005 0.028 0.005 0.041 0.008 0.033 0.009 0.065 0.017 0.097 0.026 0.014 0.005 0.028 0.011 0.042 0.014 0.090 0.026-0.056-0.036-0.013-0.006 0.073 0.050 0.157 0.085 0.232 0.137 0.016 0.011 0.030 0.022 0.044 0.033-0.079-0.060-0.006-0.003 0.009 0.011 0.040 0.037 0.083 0.073 0.121 0.112 0.204 0.203 0.313 0.362 0.472 0.614 0.132 0.213 0.417 0.296 0.639 0.168 0.213-0.124 0.301-0.422 0.168-0.636-0.485-0.776-1.218-1.556-2.222-1.381-0.603 0.105-1.072 0.579-1.418 1.050-0.078 0.105-0.151 0.216-0.213 0.33-0.118 0.222-0.056 0.506 0.168 0.636 0.213 0.124 0.523 0.057 0.642-0.166z"></path>
<path fill="none" stroke="#000" style="stroke: var(--color1, #000)" stroke-linejoin="miter" stroke-linecap="butt" stroke-miterlimit="10" stroke-width="0.5333" d="M14.163 18.362l-4.834-0.155"></path>
<path fill="none" stroke="#000" style="stroke: var(--color1, #000)" stroke-linejoin="miter" stroke-linecap="butt" stroke-miterlimit="10" stroke-width="0.5333" d="M14.243 20.022l-4.197 0.621"></path>
<path fill="none" stroke="#000" style="stroke: var(--color1, #000)" stroke-linejoin="miter" stroke-linecap="butt" stroke-miterlimit="10" stroke-width="0.5333" d="M26.899 17.646l4.834-0.155"></path>
<path fill="none" stroke="#000" style="stroke: var(--color1, #000)" stroke-linejoin="miter" stroke-linecap="butt" stroke-miterlimit="10" stroke-width="0.5333" d="M26.819 19.3l4.197 0.619"></path>
<path fill="none" stroke="#000" style="stroke: var(--color1, #000)" stroke-linejoin="miter" stroke-linecap="butt" stroke-miterlimit="10" stroke-width="0.5333" d="M19.982 19.514c0 0 2.339 3.224 4.317-0.059"></path>
<path fill="none" stroke="#000" style="stroke: var(--color1, #000)" stroke-linejoin="miter" stroke-linecap="butt" stroke-miterlimit="10" stroke-width="0.5333" d="M22.16 17.105v3.641"></path>
<path fill="#000" style="fill: var(--color1, #000)" d="M22.118 17.269c0.979 0 1.773-0.557 1.773-1.244s-0.794-1.244-1.773-1.244c-0.979 0-1.773 0.557-1.773 1.244s0.794 1.244 1.773 1.244z"></path>
<path fill="#000" style="fill: var(--color1, #000); stroke: var(--color1, #000)" stroke="#000" stroke-linejoin="miter" stroke-linecap="butt" stroke-miterlimit="10" stroke-width="0.5333" d="M6.587 15.508c1.572-1.621-3.453-5.024-3.823-5.169-0.016-0.006-1.429 6.361-1.356 10.195 0.017 0.895 0.187 1.827 0.187 1.827 0.294 0.261 0.487 1.1 2.69 0.028 1.232-0.6 1.475-1.823 0.354-2.059-2.158-0.451 0.006-0.932-0.347-1.786-0.893-2.153 0.643-1.331 2.297-3.036z"></path>
<path fill="#000" style="fill: var(--color1, #000); stroke: var(--color1, #000)" stroke="#000" stroke-linejoin="miter" stroke-linecap="butt" stroke-miterlimit="10" stroke-width="0.5333" d="M27.935 21.832c0.182-1.907 1.972-1.369 1.972-1.369 0.596 3.481-1.487 5.845-2.989 6.672-0.365 0-0.714-2.128 0.106-2.399s0.729-0.998 0.911-2.904z"></path>
</symbol>
</defs>
</svg>
